<svg xmlns="http://www.w3.org/2000/svg" xmlns:xlink="http://www.w3.org/1999/xlink" fill="none" version="1.1" width="28"
  height="28" viewBox="0 0 28 28">
  <defs>
    <clipPath id="master_svg0_6129_67070/2630_164584">
      <rect x="0" y="0" width="28" height="28" rx="0" />
    </clipPath>
  </defs>
  <g clip-path="url(#master_svg0_6129_67070/2630_164584)">
    <g>
      <path
        d="M26.2219,13.4844L22.9844,10.42188L14.1469,2.196875C13.8844,1.934375,13.5344,1.934375,13.2719,2.196875L4.69688,10.33437C4.60938,10.42188,4.5218799999999995,10.50938,4.43438,10.59688L1.196875,13.6594C0.934375,13.9219,0.934375,14.2719,1.196875,14.5344C1.459375,14.7969,1.809375,14.7969,2.07187,14.5344L4.34687,12.3469L4.34687,23.1094C4.34687,24.4219,5.48438,25.5594,6.88437,25.5594L9.15938,25.5594C10.20937,25.5594,11.0844,24.7719,11.0844,23.7219L11.0844,17.771900000000002L13.7969,17.771900000000002L16.5094,17.771900000000002L16.5094,23.7219C16.5094,24.6844,17.3844,25.5594,18.4344,25.5594L20.7094,25.5594C22.1094,25.5594,23.2469,24.5094,23.2469,23.1094L23.2469,12.2594L25.4344,14.2719C25.6969,14.5344,26.0469,14.5344,26.3094,14.2719C26.4844,14.0969,26.4844,13.7469,26.2219,13.4844ZM21.8469,23.1969C21.8469,23.8969,21.3219,24.4219,20.6219,24.4219L18.3469,24.4219C17.9969,24.4219,17.7344,24.1594,17.7344,23.8094L17.7344,17.2469C17.7344,16.896900000000002,17.4719,16.6344,17.1219,16.6344L13.7969,16.6344L10.47188,16.6344C10.12188,16.6344,9.85938,16.896900000000002,9.85938,17.2469L9.85938,23.8094C9.85938,24.1594,9.59688,24.4219,9.24688,24.4219L6.97188,24.4219C6.27188,24.4219,5.74688,23.8969,5.74688,23.1969L5.74688,11.20938L13.7969,3.50938L21.8469,11.20938L21.8469,23.1969Z"
        fill="currentColor" />
    </g>
    <g>
      <path
        d="M26.397799940395355,14.3603Q26.164299940395356,14.5937,25.871899940395355,14.5937Q25.580699940395355,14.5938,25.347899940395354,14.3622L23.371899940395355,12.5442L23.371899940395355,23.1094Q23.371899940395355,24.2046,22.589299940395357,24.9499Q21.818099940395356,25.6844,20.709399940395354,25.6844L18.434399940395355,25.6844Q17.603299940395356,25.6844,16.991099940395355,25.0913Q16.384399940395355,24.5035,16.384399940395355,23.7219L16.384399940395355,17.8969L11.209399940395356,17.8969L11.209399940395356,23.7219Q11.209399940395356,24.5553,10.601119940395355,25.1256Q10.005059940395356,25.6844,9.159379940395356,25.6844L6.884369940395355,25.6844Q5.790419940395355,25.6844,5.003309940395355,24.916Q4.221869940395355,24.1532,4.221869940395355,23.1094L4.221869940395355,12.6405L2.1602599403953553,14.6228Q1.9267799403953552,14.8563,1.6343749403953551,14.8563Q1.3419719403953552,14.8563,1.1084859403953553,14.6228Q0.8749999254941552,14.3893,0.8749999403953552,14.0969Q0.8749999254941552,13.8045,1.1084869403953552,13.571L1.1097139403953553,13.5698L4.347209940395356,10.50726L4.477239940395355,10.37724L4.609639940395356,10.24483L13.184699940395355,2.107294Q13.417699940395355,1.875,13.709399940395356,1.875Q14.000799940395355,1.875,14.233599940395354,2.106856L23.070299940395355,10.33107L26.308999940395356,13.3948L26.310299940395357,13.396Q26.532499940395354,13.6183,26.554299940395357,13.9013Q26.575899940395356,14.1821,26.397799940395355,14.3603ZM26.220999940395355,14.1835Q26.317799940395354,14.0866,26.305099940395355,13.9205Q26.290399940395357,13.7304,26.134699940395354,13.5739L22.898499940395354,10.51268L14.060099940395355,2.286849L14.058499940395356,2.285263Q13.709399940395356,1.936152,13.360299940395356,2.285263L13.359099940395355,2.28642L4.784109940395355,10.42392L4.521539940395355,10.68649L1.2840659403953552,13.749Q0.9367517403953552,14.0975,1.2852639403953552,14.446Q1.4455259403953553,14.6063,1.6343749403953551,14.6063Q1.8232229403953553,14.6063,1.9834899403953552,14.446L4.471869940395355,12.0533L4.471869940395355,23.1094Q4.471869940395355,24.0479,5.177939940395356,24.7371Q5.892219940395355,25.4344,6.884369940395355,25.4344L9.159379940395356,25.4344Q9.906199940395355,25.4344,10.430129940395355,24.9432Q10.959399940395356,24.447,10.959399940395356,23.7219L10.959399940395356,17.646900000000002L16.634399940395355,17.646900000000002L16.634399940395355,23.7219Q16.634399940395355,24.3976,17.165099940395354,24.9118Q17.704599940395354,25.4344,18.434399940395355,25.4344L20.709399940395354,25.4344Q21.718099940395355,25.4344,22.416899940395353,24.7689Q23.121899940395355,24.0975,23.121899940395355,23.1094L23.121899940395355,11.9745L25.520899940395356,14.1816L25.522799940395355,14.1835Q25.871899940395355,14.5326,26.220999940395355,14.1835ZM21.971899940395357,11.15596L21.971899940395357,23.1969Q21.971899940395357,23.7736,21.585299940395355,24.1603Q21.198699940395354,24.5469,20.621899940395355,24.5469L18.346899940395357,24.5469Q18.032599940395354,24.5469,17.820999940395357,24.3353Q17.609399940395356,24.1236,17.609399940395356,23.8094L17.609399940395356,17.2469Q17.609399940395356,17.036099999999998,17.470999940395355,16.8978Q17.332599940395355,16.7594,17.121899940395355,16.7594L10.471879940395356,16.7594Q10.261159940395356,16.7594,10.122769940395354,16.8978Q9.984379940395355,17.0362,9.984379940395355,17.2469L9.984379940395355,23.8094Q9.984379940395355,24.1236,9.772769940395355,24.3353Q9.561149940395355,24.5469,9.246879940395356,24.5469L6.971879940395355,24.5469Q6.3950999403953555,24.5469,6.008489940395355,24.1603Q5.621879940395355,23.7737,5.621879940395355,23.1969L5.621879940395355,11.15596L13.796899940395356,3.3364000000000003L21.971899940395357,11.15596ZM21.721899940395357,23.1969L21.721899940395357,11.26279L13.796899940395356,3.68235L5.871879940395355,11.26279L5.871879940395355,23.1969Q5.871879940395355,23.6701,6.185269940395355,23.9835Q6.498659940395355,24.2969,6.971879940395355,24.2969L9.246879940395356,24.2969Q9.734379940395355,24.2969,9.734379940395355,23.8094L9.734379940395355,17.2469Q9.734379940395355,16.9326,9.945989940395355,16.721Q10.157599940395356,16.5094,10.471879940395356,16.5094L17.121899940395355,16.5094Q17.436199940395355,16.5094,17.647799940395355,16.721Q17.859399940395356,16.9326,17.859399940395356,17.2469L17.859399940395356,23.8094Q17.859399940395356,24.0201,17.997799940395357,24.1585Q18.136199940395354,24.2969,18.346899940395357,24.2969L20.621899940395355,24.2969Q21.095099940395354,24.2969,21.408499940395355,23.9835Q21.721899940395357,23.6701,21.721899940395357,23.1969Z"
        fill-rule="evenodd" fill="currentColor" />
    </g>
  </g>
</svg>
