<svg xmlns="http://www.w3.org/2000/svg" xmlns:xlink="http://www.w3.org/1999/xlink" fill="none" version="1.1" width="28"
  height="28" viewBox="0 0 28 28">
  <defs>
    <clipPath id="master_svg0_6182_56771/20_05109">
      <rect x="0" y="0" width="28" height="28" rx="0" />
    </clipPath>
  </defs>
  <g clip-path="url(#master_svg0_6182_56771/20_05109)">
    <g>
      <path
        d="M3.7339,19.99722C3.321565,19.99722,3,19.68304,3,19.27916C2.99999994804,18.882469999999998,3.328578,18.56089,3.7339,18.5609L5.72464,18.5609C5.92612,18.5609,6.122920000000001,18.64301,6.26436,18.78848C6.3987099999999995,18.92446,6.46824,19.10053,6.46115,19.28407C6.4617,19.6806,6.13241,20.001829999999998,5.72725,19.99999L3.7339,19.99999L3.7339,19.99722ZM16.9974,19.43849C16.799500000000002,19.43944,16.6094,19.3626,16.469900000000003,19.2252C16.3281,19.08645,16.2512,18.906010000000002,16.2512,18.71575C16.2512,18.52325,16.3281,18.34227,16.467100000000002,18.20651L17.4864,17.20883L13.7521,17.20883C13.3469,17.20877,13.0184,16.887340000000002,13.0183,16.49077C13.0183,16.08679,13.3419,15.772400000000001,13.7521,15.772400000000001L17.489,15.772400000000001L16.4698,14.7745C16.3352,14.6526,16.2561,14.4744,16.2511,14.28435C16.2483,14.08661,16.327199999999998,13.896127,16.4698,13.756021C16.6109,13.617594,16.7956,13.542194,16.989800000000002,13.542194C17.1844,13.542194,17.371499999999997,13.617594,17.5103,13.756021L19.8558,16.02131L19.9258,16.13873L19.9375,16.17627L19.9566,16.2137L19.9759,16.27225L19.9952,16.35448L20,16.71398L19.9663,16.74672L19.9663,16.77978L19.8947,16.87843C19.8537,16.93442,19.8248,16.96268,19.7986,16.99095L17.5103,19.23032C17.3834,19.35894,17.1937,19.43849,16.9974,19.43849ZM3.75079,17.22525C3.345365,17.225189999999998,3.0167695,16.90345,3.01689,16.50666C3.01689,16.10322,3.340634,15.78861,3.75079,15.78861L7.74894,15.78861C7.95532,15.78861,8.151900000000001,15.870940000000001,8.290949999999999,16.01385C8.4235,16.14606,8.49317,16.32671,8.482949999999999,16.51167C8.48344,16.90819,8.15408,17.22934,7.74894,17.22738L3.75079,17.22738L3.75079,17.22525ZM3.75079,14.43696C3.345398,14.43673,3.0168901,14.11493,3.01689,13.718055C3.01689,13.314503,3.340634,13,3.75079,13L10.811810000000001,13C11.01319,13,11.20998,13.0822253,11.35153,13.227692C11.48578,13.363773,11.5553,13.539954,11.54833,13.723067C11.54888,14.11967,11.21944,14.44089,10.81421,14.43888L3.75079,14.43888L3.75079,14.43696Z"
        fill="currentColor" />
    </g>
    <g>
      <path
        d="M5.13198,25C3.96388,25,3.0122885,24.0481,3.0122885,22.8801L3.0122885,22.0315C3.0122885,21.609,3.344307,21.2794,3.764692,21.2794C4.18776,21.2794,4.51721,21.609,4.51721,22.0315L4.51721,22.8632C4.51764,23.193,4.78489,23.4602,5.114660000000001,23.4606L22.8584,23.4606C23.1882,23.4602,23.4555,23.193,23.456,22.8632L23.456,11.13264C23.456,11.07599,23.456,11.00952,23.4487,10.94326L4.51475,10.94326C4.51475,10.95309,4.51218,10.962810000000001,4.51218,10.97265C4.50803,10.99957,4.50564,11.02674,4.50503,11.05398L4.50503,11.60481C4.50503,12.02759,4.1729,12.3573,3.752515,12.3573C3.329672,12.3573,3,12.02759,3,11.60481L3,11.05398C3,10.17099,3.322075,8.88477,3.732965,8.127469999999999L5.6017399999999995,4.6108C6.08603,3.7057919999999998,7.26161,3,8.27699,3L19.7404,3C20.7684,3,21.9438,3.715401,22.4159,4.62778L24.2846,8.22333C24.6853,8.961079999999999,25,10.24976,25,11.14974L25,22.8801C25,24.0481,24.0483,25,22.8804,25L5.13198,25ZM8.27207,4.5222C7.80231,4.5222,7.17034,4.90599,6.94422,5.3287700000000005L5.07545,8.84801C4.99669,8.990459999999999,4.9157,9.19962,4.83939,9.44062L23.1608,9.44062C23.0894,9.23414,23.0255,9.06432,22.9492,8.928899999999999L21.0802,5.33134C20.8568,4.91079,20.2224,4.52465,19.7525,4.52465L8.27207,4.52465L8.27207,4.5222Z"
        fill="currentColor" />
    </g>
  </g>
</svg>
