<svg xmlns="http://www.w3.org/2000/svg" xmlns:xlink="http://www.w3.org/1999/xlink" fill="none" version="1.1" width="28"
  height="28" viewBox="0 0 28 28">
  <defs>
    <clipPath id="master_svg0_6182_56777/20_05109">
      <rect x="0" y="0" width="28" height="28" rx="0" />
    </clipPath>
  </defs>
  <g clip-path="url(#master_svg0_6182_56777/20_05109)">
    <g>
      <path
        d="M16.047084062499998,18.05017L18.3052640625,20.32441C18.9362140625,20.92642,18.9362140625,21.96321,18.2720540625,22.53177C17.9731740625,22.83278,17.5746740625,23,17.1429640625,23C16.7112540625,23,16.312754062499998,22.83278,16.0138740625,22.53177L13.7889040625,20.29097C13.3904040625,20.458190000000002,12.9586840625,20.52508,12.526974062499999,20.52508C10.4348440625,20.52508,8.7744140625,18.8194,8.7744140625,16.745820000000002Q8.7744137384,15.94314,9.0732910625,15.2408L9.1397080625,15.07358C9.1729170625,15.07358,9.1729170625,15.04013,9.2061250625,15.006689999999999C9.2725420625,14.90635,9.4053770625,14.90635,9.505002062500001,15.006689999999999L11.5639340625,17.08027L12.8258540625,15.80936L10.7337140625,13.702341C10.6673040625,13.635451,10.6673040625,13.501672,10.7337140625,13.434782C10.7669240625,13.434782,10.7669240625,13.401337,10.8001340625,13.401337L11.0325940625,13.301003Q11.7797840625,13,12.5269840625,13C14.6191140625,13,16.2795440625,14.70569,16.2795440625,16.77926C16.2795440625,17.21405,16.1799140625,17.64883,16.047084062499998,18.05017ZM16.6596640625,21.80328C16.7908040625,21.93443,16.954744062499998,22,17.1186740625,22C17.282614062500002,22,17.4465440625,21.93443,17.5776940625,21.83607C17.8399840625,21.57377,17.8399840625,21.14754,17.5776940625,20.88524L14.9547440625,18.26229L15.1514640625,17.70492C15.2498240625,17.40984,15.315394062500001,17.11475,15.315394062500001,16.78688C15.315394062500001,15.245899999999999,14.069494062499999,14,12.528514062500001,14L12.2990040625,14L14.1350740625,15.83607L11.6104840625,18.36066L9.7744140625,16.52459L9.7744140625,16.7541C9.7744140625,18.29508,11.020314062499999,19.54098,12.5613040625,19.54098C12.8563840625,19.54098,13.184254062499999,19.47541,13.479334062500001,19.37705L14.0367140625,19.180329999999998L16.6596640625,21.80328Z"
        fill-rule="evenodd" fill="currentColor" />
    </g>
    <g>
      <path
        d="M24.8994140625,23.2472L24.8994140625,7.75277Q24.8994140625,6.9676100000000005,24.3528140625,6.419995Q23.8088140625,5.875,23.0357140625,5.875L4.5131240625,5.875Q3.7400240625,5.875,3.1960250625,6.419995Q2.6494140625,6.9676100000000005,2.6494140625,7.75277L2.6494140625,23.2472Q2.6494140625,24.0324,3.1960250625,24.58Q3.7400240625,25.125,4.5131240625,25.125L23.0357140625,25.125Q23.8088140625,25.125,24.3528140625,24.58Q24.8994140625,24.0324,24.8994140625,23.2472ZM23.3781140625,7.41665Q23.5494140625,7.5859000000000005,23.5494140625,7.82288L23.5494140625,23.1771Q23.5494140625,23.4141,23.3781140625,23.5834Q23.2061140625,23.7532,22.9647140625,23.7532L4.5840940625,23.7532Q4.3426840625,23.7532,4.1707340625,23.5834Q3.9994140625,23.4141,3.9994140625,23.1771L3.9994140625,7.82288Q3.9994140625,7.58589,4.1707340625,7.41665Q4.3426840625,7.24677,4.5840940625,7.24677L22.9647140625,7.24677Q23.2061140625,7.24677,23.3781140625,7.41665Z"
        fill-rule="evenodd" fill="currentColor" />
    </g>
    <g>
      <path
        d="M7.8265140625,12.8896Q8.0176940625,12.663540000000001,8.0176940625,12.338840000000001L8.0176940625,11.125L18.531114062500002,11.125L18.531114062500002,12.338840000000001Q18.531114062500002,12.663540000000001,18.7223140625,12.8896Q18.9214140625,13.125,19.2153140625,13.125Q19.5091140625,13.125,19.7082140625,12.8896Q19.8994140625,12.663540000000001,19.8994140625,12.338840000000001L19.8994140625,11.125L24.1703140625,11.125Q24.4560140625,11.125,24.6633140625,10.93548Q24.8662140625,10.74999,24.8986140625,10.47209L24.8994140625,10.46488L24.8994140625,10.45763Q24.8994140625,10.1753,24.6963140625,9.98159Q24.4958140625,9.79025,24.2059140625,9.79025L19.8994140625,9.79025L19.8994140625,8.661157Q19.8994140625,8.336461,19.7082140625,8.110398Q19.5091140625,7.875000953674,19.2153140625,7.875Q18.9214140625,7.875,18.7223140625,8.110398Q18.531114062500002,8.336461,18.531114062500002,8.661157L18.531114062500002,9.79025L8.0176940625,9.79025L8.0176940625,8.661157Q8.0176940625,8.336462,7.8265140625,8.110398Q7.6274340625,7.875,7.3335540625,7.875Q7.0396740625,7.875,6.8405940625,8.110398Q6.6494140625,8.336463,6.6494140625,8.661157L6.6494140625,9.79025L4.3429420625,9.79025Q4.0530330625,9.79025,3.8524710625,9.98159Q3.6494140625,10.1753,3.6494140625,10.45763Q3.6494140625,10.73995,3.8524710625,10.93367Q4.0530330625,11.125,4.3429420625,11.125L6.6494140625,11.125L6.6494140625,12.338840000000001Q6.6494140625,12.663540000000001,6.8405940625,12.8896Q7.0396740625,13.125,7.3335540625,13.125Q7.6274340625,13.125,7.8265140625,12.8896Z"
        fill-rule="evenodd" fill="currentColor" />
    </g>
    <g>
      <path
        d="M18.88623125,7.25L9.11328125,7.25L9.113396645,4.81992Q9.113396645,4.0576799999999995,9.66226925,3.5266859999999998Q10.20669125,3,10.97951125,3L17.02012125,3Q17.79295125,3,18.33736125,3.5266859999999998Q18.886241249999998,4.05769,18.886241249999998,4.81992L18.88623125,7.25ZM10.50049125,5.91525L10.50046125,4.88768Q10.50046125,4.66153,10.670501250000001,4.4993099999999995Q10.84303125,4.33472,11.08612125,4.33472L16.94906125,4.33472Q17.192151250000002,4.33472,17.36468125,4.4993099999999995Q17.53472125,4.66153,17.53472125,4.88768L17.53468125,5.91525L10.50049125,5.91525Z"
        fill-rule="evenodd" fill="currentColor" />
    </g>
  </g>
</svg>
