<svg xmlns="http://www.w3.org/2000/svg" xmlns:xlink="http://www.w3.org/1999/xlink" fill="none" version="1.1" width="28"
  height="28" viewBox="0 0 28 28">
  <defs>
    <clipPath id="master_svg0_6182_55444/20_05109">
      <rect x="0" y="0" width="28" height="28" rx="0" />
    </clipPath>
  </defs>
  <g clip-path="url(#master_svg0_6182_55444/20_05109)">
    <g>
      <path
        d="M5,7.45086669921875L5,23.45086669921875C5,24.55546669921875,5.895431,25.45086669921875,7,25.45086669921875L19,25.45086669921875C20.104599999999998,25.45086669921875,21,24.55546669921875,21,23.45086669921875L21,10.45086669921875L16,5.45086669921875L7,5.45086669921875C5.895431,5.45086669921875,5,6.34629769921875,5,7.45086669921875ZM15.4822,6.70086669921875L19.75,10.968636699218749L19.75,23.45086669921875Q19.75,24.20086669921875,19,24.20086669921875L7,24.20086669921875Q6.25,24.20086669921875,6.25,23.45086669921875L6.25,7.45086669921875Q6.25,6.70086669921875,7,6.70086669921875L15.4822,6.70086669921875Z"
        fill-rule="evenodd" fill="currentColor" />
    </g>
    <g>
      <path
        d="M7.46240234375,5L7.46240234375,6.069459999999999L8.71240234375,6.069459999999999L8.71240234375,5Q8.71240234375,4.25,9.46240234375,4.25L17.94460234375,4.25L22.21240234375,8.517769999999999L22.21240234375,21Q22.21240234375,21.75,21.46240234375,21.75L20.472402343749998,21.75L20.472402343749998,23L21.46240234375,23C22.567002343749998,23,23.46240234375,22.1046,23.46240234375,21L23.46240234375,8L18.46240234375,3L9.46240234375,3C8.35783334375,3,7.46240234375,3.895431,7.46240234375,5Z"
        fill="currentColor" />
    </g>
    <g>
      <rect x="8" y="12.45086669921875" width="9" height="1.25" rx="0.625" fill="currentColor" />
    </g>
    <g>
      <path
        d="M14.81814,19.04013L16.624679999999998,20.85953C17.12945,21.34114,17.12945,22.170569999999998,16.59811,22.62542C16.359009999999998,22.86622,16.040210000000002,23,15.69484,23C15.34947,23,15.03067,22.86622,14.79157,22.62542L13.01159,20.83278C12.69279,20.966549999999998,12.34742,21.02007,12.00205,21.02007C10.32834,21.02007,9,19.65552,9,17.99665Q8.99999974072,17.35451,9.239101,16.79264L9.292235,16.65886C9.318802,16.65886,9.318802,16.63211,9.345369,16.60535C9.398502,16.52508,9.50477,16.52508,9.58447,16.60535L11.23161,18.26421L12.241150000000001,17.24749L10.56744,15.561873C10.51431,15.508361,10.51431,15.401337999999999,10.56744,15.347826C10.59401,15.347826,10.59401,15.32107,10.62058,15.32107L10.80655,15.240803Q11.4043,15,12.00205,15C13.67576,15,15.004100000000001,16.36455,15.004100000000001,18.02341C15.004100000000001,18.37124,14.9244,18.71906,14.81814,19.04013ZM15.3082,22.04262C15.41312,22.14754,15.544260000000001,22.2,15.67541,22.2C15.806560000000001,22.2,15.93771,22.14754,16.04262,22.06885C16.25246,21.859009999999998,16.25246,21.51803,16.04262,21.3082L13.94426,19.20984L14.10164,18.763930000000002C14.18033,18.52787,14.23279,18.2918,14.23279,18.029510000000002C14.23279,16.79672,13.23607,15.8,12.00328,15.8L11.81967,15.8L13.28853,17.26885L11.26885,19.28852L9.8,17.81967L9.8,18.00328C9.8,19.236069999999998,10.79672,20.23279,12.02951,20.23279C12.26557,20.23279,12.52787,20.180329999999998,12.76393,20.10164L13.20984,19.94426L15.3082,22.04262Z"
        fill-rule="evenodd" fill="currentColor" />
    </g>
  </g>
</svg>
