<svg xmlns="http://www.w3.org/2000/svg" xmlns:xlink="http://www.w3.org/1999/xlink" fill="none" version="1.1" width="28"
  height="28" viewBox="0 0 28 28">
  <defs>
    <clipPath id="master_svg0_6129_58237/2630_164584">
      <rect x="0" y="0" width="28" height="28" rx="0" />
    </clipPath>
  </defs>
  <g clip-path="url(#master_svg0_6129_58237/2630_164584)">
    <g>
      <path
        d="M2.712767,18.7683Q1.75,16.4921,1.75,14Q1.75,11.50791,2.7127689999999998,9.231670000000001Q3.64261,7.03327,5.33794,5.33794Q7.03327,3.64261,9.231670000000001,2.712767Q11.50791,1.75,14,1.75Q16.4921,1.75,18.7683,2.712768Q20.9667,3.64261,22.6621,5.33794Q24.3574,7.03325,25.2872,9.231670000000001Q26.25,11.50789,26.25,14Q26.25,16.4921,25.2872,18.7683Q24.3574,20.9667,22.6621,22.6621Q21.8083,23.5158,20.8271,24.1754Q20.4277,24.4438,20.0072,24.6801Q19.4091,25.0162,18.7683,25.2872Q16.4921,26.25,14,26.25Q11.50794,26.25,9.231670000000001,25.2872Q8.59083,25.0162,7.99274,24.6801Q7.57225,24.4438,7.17288,24.1753Q6.19163,23.5158,5.33794,22.6621Q3.64261,20.9667,2.712767,18.7683ZM18.4948,14.1848Q19.8785,15.1653,20.7323,16.6583Q21.5178,18.0321,21.697,19.5739Q21.75,20.0296,21.75,20.5Q21.75,21.0149,21.6836,21.5195Q22.4144,20.7755,22.9819,19.9129Q23.4284,19.2343,23.7739,18.4823Q24.75,16.3574,24.75,14Q24.75,11.8128,23.9053,9.8157Q23.0894,7.88659,21.6014,6.39862Q20.1134,4.91065,18.1843,4.0947Q16.1873,3.25002,14,3.25002Q11.8127,3.25002,9.81568,4.09471Q7.88656,4.91066,6.39859,6.39863Q4.910629999999999,7.8866,4.09468,9.81572Q3.24999,11.8128,3.24999,14Q3.24999,16.3574,4.22609,18.4823Q4.57155,19.2343,5.018079999999999,19.913Q5.58558,20.7755,6.31635,21.5195Q6.25,21.0149,6.25,20.5Q6.25,20.0296,6.30296,19.5739Q6.48217,18.0321,7.26768,16.6583Q8.12145,15.1653,9.50517,14.1848Q9.72089,14.0319,9.94949,13.8915L10.13842,13.7755L10.2762,13.9492Q10.94172,14.7883,11.8987,15.2612Q12.888,15.75,14,15.75Q15.112,15.75,16.101300000000002,15.2612Q17.0583,14.7883,17.7238,13.9492L17.8615,13.7755L18.0505,13.8915Q18.2791,14.0319,18.4948,14.1848ZM9.97593,12.4084Q10.28016,13.2922,10.99406,14.0064Q12.239,15.252,14,15.252Q15.761,15.252,17.0059,14.0064Q17.719900000000003,13.2922,18.0241,12.4083Q18.2504,11.751,18.25,10.9999Q18.2509,9.23913,17.0059,7.9936Q15.761,6.74807,14,6.74807Q12.239,6.74807,10.99406,7.9936Q9.749220000000001,9.23904,9.75,10.9999Q9.74967,11.751,9.97593,12.4084ZM11,10.99935Q10.99945,9.7564,11.8782,8.87727Q12.7569,7.99807,14,7.99807Q15.2431,7.99807,16.1218,8.87726Q17.0006,9.75646,17,11.0005Q17.0006,12.2436,16.1218,13.1228Q15.2431,14.002,14,14.002Q12.7569,14.002,11.8782,13.1228Q10.99945,12.2436,11,10.99935ZM7.78203,23.0778Q8.688970000000001,23.7005,9.7186,24.136Q11.7614,25,14,25Q16.238599999999998,25,18.2814,24.136Q19.311,23.7005,20.2179,23.0778L20.4443,21.3565Q20.5,20.9331,20.5,20.5Q20.5,18.7702,19.6472,17.2788Q19.0224,16.1862,18.0593,15.4206Q17.4337,15.9971,16.655,16.3819Q15.404,17,14,17Q12.596,17,11.34499,16.3819Q10.56629,15.9971,9.94066,15.4206Q8.977599999999999,16.1862,8.3528,17.2788Q7.5,18.7702,7.5,20.5Q7.5,20.9331,7.55568,21.3565L7.78203,23.0778Z"
        fill-rule="evenodd" fill="currentColor" />
    </g>
  </g>
</svg>
